name rise30.2954peak35.7071fall66.7804.mot
datacolumns 19
datarows 36
range 12.99495800000000 13.05328800000000
endheader
time	ground_force1_vx	ground_force1_vy	ground_force1_vz	ground_force1_px	ground_force1_py	ground_force1_pz	ground_force2_vx	ground_force2_vy	ground_force2_vz	ground_force2_px	ground_force2_py	ground_force2_pz	ground_torque1_x	ground_torque1_y	ground_torque1_z	ground_torque2_x	ground_torque2_y	ground_torque2_z	
12.99495800000000	59.57369200000000	778.11989300000005	63.88404100000000	0.32376700000000	0.00000000000000	0.16051700000000	0.00000000000000	0.00000000000000	0.00000000000000	0.00000000000000	0.00000000000000	0.00000000000000	0.00000000000000	20.59965300000000	0.00000000000000	0.00000000000000	0.00000000000000	0.00000000000000	
12.99662400000000	58.82686600000000	780.48551599999996	64.03483100000000	0.32279700000000	0.00000000000000	0.16047400000000	0.00000000000000	0.00000000000000	0.00000000000000	0.00000000000000	0.00000000000000	0.00000000000000	0.00000000000000	20.77659300000000	0.00000000000000	0.00000000000000	0.00000000000000	0.00000000000000	
12.99828900000000	58.08099100000000	782.70095300000003	64.18317300000000	0.32183800000000	0.00000000000000	0.16043200000000	0.00000000000000	0.00000000000000	0.00000000000000	0.00000000000000	0.00000000000000	0.00000000000000	0.00000000000000	20.95284100000000	0.00000000000000	0.00000000000000	0.00000000000000	0.00000000000000	
12.99995400000000	57.33660100000000	784.76524800000004	64.32886400000000	0.32088800000000	0.00000000000000	0.16039200000000	0.00000000000000	0.00000000000000	0.00000000000000	0.00000000000000	0.00000000000000	0.00000000000000	0.00000000000000	21.12819200000000	0.00000000000000	0.00000000000000	0.00000000000000	0.00000000000000	
13.00162000000000	56.59416400000000	786.67762900000002	64.47162600000000	0.31994800000000	0.00000000000000	0.16035200000000	0.00000000000000	0.00000000000000	0.00000000000000	0.00000000000000	0.00000000000000	0.00000000000000	0.00000000000000	21.30240400000000	0.00000000000000	0.00000000000000	0.00000000000000	0.00000000000000	
13.00329100000000	55.85409500000000	788.43751499999996	64.61111200000001	0.31901500000000	0.00000000000000	0.16031400000000	0.00000000000000	0.00000000000000	0.00000000000000	0.00000000000000	0.00000000000000	0.00000000000000	0.00000000000000	21.47520200000000	0.00000000000000	0.00000000000000	0.00000000000000	0.00000000000000	
13.00495800000000	55.11675100000000	790.04452800000001	64.74691100000000	0.31809000000000	0.00000000000000	0.16027700000000	0.00000000000000	0.00000000000000	0.00000000000000	0.00000000000000	0.00000000000000	0.00000000000000	0.00000000000000	21.64628100000000	0.00000000000000	0.00000000000000	0.00000000000000	0.00000000000000	
13.00662300000000	54.38244100000000	791.49849800000004	64.87855399999999	0.31717000000000	0.00000000000000	0.16024100000000	0.00000000000000	0.00000000000000	0.00000000000000	0.00000000000000	0.00000000000000	0.00000000000000	0.00000000000000	21.81530800000000	0.00000000000000	0.00000000000000	0.00000000000000	0.00000000000000	
13.00829100000000	53.65142400000000	792.79947400000003	65.00551600000000	0.31625500000000	0.00000000000000	0.16020500000000	0.00000000000000	0.00000000000000	0.00000000000000	0.00000000000000	0.00000000000000	0.00000000000000	0.00000000000000	21.98192300000000	0.00000000000000	0.00000000000000	0.00000000000000	0.00000000000000	
13.00995000000000	52.92391800000000	793.94772699999999	65.12722800000000	0.31534400000000	0.00000000000000	0.16017100000000	0.00000000000000	0.00000000000000	0.00000000000000	0.00000000000000	0.00000000000000	0.00000000000000	0.00000000000000	22.14574600000000	0.00000000000000	0.00000000000000	0.00000000000000	0.00000000000000	
13.01162500000000	52.20010200000000	794.94375900000000	65.24308100000000	0.31443500000000	0.00000000000000	0.16013800000000	0.00000000000000	0.00000000000000	0.00000000000000	0.00000000000000	0.00000000000000	0.00000000000000	0.00000000000000	22.30637800000000	0.00000000000000	0.00000000000000	0.00000000000000	0.00000000000000	
13.01328800000000	51.48012000000000	795.78830300000004	65.35243100000000	0.31352700000000	0.00000000000000	0.16010500000000	0.00000000000000	0.00000000000000	0.00000000000000	0.00000000000000	0.00000000000000	0.00000000000000	0.00000000000000	22.46340400000000	0.00000000000000	0.00000000000000	0.00000000000000	0.00000000000000	
13.01495700000000	50.76408300000000	796.48233100000004	65.45460700000000	0.31262000000000	0.00000000000000	0.16007300000000	0.00000000000000	0.00000000000000	0.00000000000000	0.00000000000000	0.00000000000000	0.00000000000000	0.00000000000000	22.61639700000000	0.00000000000000	0.00000000000000	0.00000000000000	0.00000000000000	
13.01662600000000	50.05207800000000	797.02705300000002	65.54892000000000	0.31171100000000	0.00000000000000	0.16004100000000	0.00000000000000	0.00000000000000	0.00000000000000	0.00000000000000	0.00000000000000	0.00000000000000	0.00000000000000	22.76492300000000	0.00000000000000	0.00000000000000	0.00000000000000	0.00000000000000	
13.01829200000000	49.34416900000000	797.42391799999996	65.63466500000000	0.31080000000000	0.00000000000000	0.16001000000000	0.00000000000000	0.00000000000000	0.00000000000000	0.00000000000000	0.00000000000000	0.00000000000000	0.00000000000000	22.90854100000000	0.00000000000000	0.00000000000000	0.00000000000000	0.00000000000000	
13.01995100000000	48.64039900000000	797.67461800000001	65.71113099999999	0.30988500000000	0.00000000000000	0.15998000000000	0.00000000000000	0.00000000000000	0.00000000000000	0.00000000000000	0.00000000000000	0.00000000000000	0.00000000000000	23.04681100000000	0.00000000000000	0.00000000000000	0.00000000000000	0.00000000000000	
13.02161700000000	47.94079900000000	797.78108199999997	65.77761000000000	0.30896500000000	0.00000000000000	0.15994900000000	0.00000000000000	0.00000000000000	0.00000000000000	0.00000000000000	0.00000000000000	0.00000000000000	0.00000000000000	23.17929100000000	0.00000000000000	0.00000000000000	0.00000000000000	0.00000000000000	
13.02328500000000	47.24538800000000	797.74547600000005	65.83339800000000	0.30803900000000	0.00000000000000	0.15991900000000	0.00000000000000	0.00000000000000	0.00000000000000	0.00000000000000	0.00000000000000	0.00000000000000	0.00000000000000	23.30554800000000	0.00000000000000	0.00000000000000	0.00000000000000	0.00000000000000	
13.02495100000000	46.55417700000000	797.57020299999999	65.87780500000000	0.30710600000000	0.00000000000000	0.15988900000000	0.00000000000000	0.00000000000000	0.00000000000000	0.00000000000000	0.00000000000000	0.00000000000000	0.00000000000000	23.42515700000000	0.00000000000000	0.00000000000000	0.00000000000000	0.00000000000000	
13.02662400000000	45.86717500000000	797.25789299999997	65.91015899999999	0.30616500000000	0.00000000000000	0.15985900000000	0.00000000000000	0.00000000000000	0.00000000000000	0.00000000000000	0.00000000000000	0.00000000000000	0.00000000000000	23.53770300000000	0.00000000000000	0.00000000000000	0.00000000000000	0.00000000000000	
13.02829200000000	45.18439000000000	796.81140200000004	65.92981600000000	0.30521400000000	0.00000000000000	0.15982800000000	0.00000000000000	0.00000000000000	0.00000000000000	0.00000000000000	0.00000000000000	0.00000000000000	0.00000000000000	23.64278700000000	0.00000000000000	0.00000000000000	0.00000000000000	0.00000000000000	
13.02995700000000	44.50583300000000	796.23380799999995	65.93616100000000	0.30425300000000	0.00000000000000	0.15979800000000	0.00000000000000	0.00000000000000	0.00000000000000	0.00000000000000	0.00000000000000	0.00000000000000	0.00000000000000	23.74003000000000	0.00000000000000	0.00000000000000	0.00000000000000	0.00000000000000	
13.03162700000000	43.83151900000000	795.52839600000004	65.92861600000001	0.30328100000000	0.00000000000000	0.15976700000000	0.00000000000000	0.00000000000000	0.00000000000000	0.00000000000000	0.00000000000000	0.00000000000000	0.00000000000000	23.82907100000000	0.00000000000000	0.00000000000000	0.00000000000000	0.00000000000000	
13.03328800000000	43.16147400000000	794.69865900000002	65.90664200000001	0.30229600000000	0.00000000000000	0.15973500000000	0.00000000000000	0.00000000000000	0.00000000000000	0.00000000000000	0.00000000000000	0.00000000000000	0.00000000000000	23.90957300000000	0.00000000000000	0.00000000000000	0.00000000000000	0.00000000000000	
13.03495700000000	42.49573300000000	793.74828500000001	65.86974800000000	0.30129900000000	0.00000000000000	0.15970300000000	0.00000000000000	0.00000000000000	0.00000000000000	0.00000000000000	0.00000000000000	0.00000000000000	0.00000000000000	23.98122600000000	0.00000000000000	0.00000000000000	0.00000000000000	0.00000000000000	
13.03662400000000	41.83434400000000	792.68114700000001	65.81749100000000	0.30028700000000	0.00000000000000	0.15967000000000	0.00000000000000	0.00000000000000	0.00000000000000	0.00000000000000	0.00000000000000	0.00000000000000	0.00000000000000	24.04374800000000	0.00000000000000	0.00000000000000	0.00000000000000	0.00000000000000	
13.03828500000000	41.17737200000000	791.50129700000002	65.74948300000000	0.29926200000000	0.00000000000000	0.15963600000000	0.00000000000000	0.00000000000000	0.00000000000000	0.00000000000000	0.00000000000000	0.00000000000000	0.00000000000000	24.09688700000000	0.00000000000000	0.00000000000000	0.00000000000000	0.00000000000000	
13.03995900000000	40.52489600000000	790.21294899999998	65.66539200000000	0.29822200000000	0.00000000000000	0.15960200000000	0.00000000000000	0.00000000000000	0.00000000000000	0.00000000000000	0.00000000000000	0.00000000000000	0.00000000000000	24.14042300000000	0.00000000000000	0.00000000000000	0.00000000000000	0.00000000000000	
13.04162100000000	39.87701300000000	788.82047299999999	65.56494400000000	0.29716600000000	0.00000000000000	0.15956600000000	0.00000000000000	0.00000000000000	0.00000000000000	0.00000000000000	0.00000000000000	0.00000000000000	0.00000000000000	24.17417000000000	0.00000000000000	0.00000000000000	0.00000000000000	0.00000000000000	
13.04329200000000	39.23384100000000	787.32838100000004	65.44792800000000	0.29609400000000	0.00000000000000	0.15952900000000	0.00000000000000	0.00000000000000	0.00000000000000	0.00000000000000	0.00000000000000	0.00000000000000	0.00000000000000	24.19797600000000	0.00000000000000	0.00000000000000	0.00000000000000	0.00000000000000	
13.04495900000000	38.59551400000000	785.74131699999998	65.31419600000000	0.29500700000000	0.00000000000000	0.15949100000000	0.00000000000000	0.00000000000000	0.00000000000000	0.00000000000000	0.00000000000000	0.00000000000000	0.00000000000000	24.21172600000000	0.00000000000000	0.00000000000000	0.00000000000000	0.00000000000000	
13.04662100000000	37.96218900000000	784.06403799999998	65.16366400000000	0.29390300000000	0.00000000000000	0.15945100000000	0.00000000000000	0.00000000000000	0.00000000000000	0.00000000000000	0.00000000000000	0.00000000000000	0.00000000000000	24.21534200000000	0.00000000000000	0.00000000000000	0.00000000000000	0.00000000000000	
13.04828800000000	37.33404100000000	782.30140900000004	64.99631599999999	0.29278400000000	0.00000000000000	0.15941000000000	0.00000000000000	0.00000000000000	0.00000000000000	0.00000000000000	0.00000000000000	0.00000000000000	0.00000000000000	24.20878200000000	0.00000000000000	0.00000000000000	0.00000000000000	0.00000000000000	
13.04995700000000	36.71126700000000	780.45838500000002	64.81220000000000	0.29164800000000	0.00000000000000	0.15936700000000	0.00000000000000	0.00000000000000	0.00000000000000	0.00000000000000	0.00000000000000	0.00000000000000	0.00000000000000	24.19204300000000	0.00000000000000	0.00000000000000	0.00000000000000	0.00000000000000	
13.05162800000000	36.09408100000000	778.53999899999997	64.61142900000000	0.29049700000000	0.00000000000000	0.15932300000000	0.00000000000000	0.00000000000000	0.00000000000000	0.00000000000000	0.00000000000000	0.00000000000000	0.00000000000000	24.16515900000000	0.00000000000000	0.00000000000000	0.00000000000000	0.00000000000000	
13.05328800000000	35.48272000000000	776.55134699999996	64.39418400000000	0.28933000000000	0.00000000000000	0.15927600000000	0.00000000000000	0.00000000000000	0.00000000000000	0.00000000000000	0.00000000000000	0.00000000000000	0.00000000000000	24.12820200000000	0.00000000000000	0.00000000000000	0.00000000000000	0.00000000000000	
